# xmcd CD database file
#
# Track frame offsets:
#	150
#	32405
#	58085
#	80865
#	94770
#	118625
#	147310
#	175420
#	218395
#	242437
#	264780
#	289735
#
# Disc length: 4318 seconds
#
# Revision: 0
# Processed by: cddbd v1.4PL0 Copyright (c) Steve Scherf et al.
# Submitted via: CDex 1.50beta10
#
DISCID=a210dc0c
DTITLE=Irv Williams - Encore
DYEAR=2001
DGENRE=Jazz
TTITLE0=Maybe September
TTITLE1=Ill Winds
TTITLE2=Edelweiss
TTITLE3=Tickle Toe
TTITLE4=My Old Flame
TTITLE5=Crazy He Calls Me
TTITLE6=Yesterdays
TTITLE7=Alone Together
TTITLE8=Body and Soul
TTITLE9=Falling In Love
TTITLE10=Speak Low
TTITLE11=Minor Blues
EXTD=YEAR: 2001
EXTT0=
EXTT1=
EXTT2=
EXTT3=
EXTT4=
EXTT5=
EXTT6=
EXTT7=
EXTT8=
EXTT9=
EXTT10=
EXTT11=
PLAYORDER=
